# xmcd
#
# Track frame offsets:
#	150
#	14125
#	24599
#	36893
#	50777
#	65003
#	76498
#	94701
#	106547
#	119062
#	131531
#	143928
#	152345
#	164145
#	176593
#
# Disc length: 2562 seconds
# Revision: 0
# Processed by: cddbd v1.5.2PL0 Copyright (c) Steve Scherf et al.
# Submitted via: dBpowerAMP V12.0
#
DISCID=d20a000f
DTITLE=The Carper Family - Old-Fashioned Gal
DYEAR=2013
DGENRE=Country
TTITLE0=Old-Fashioned Gal
TTITLE1=Precious Jewel
TTITLE2=Foolish Ramblin' Man
TTITLE3=My Old Chevy Van
TTITLE4=Boxcar Blues (Hello Sunshine)
TTITLE5=Dollar Bill
TTITLE6=I Gotta Have My Baby Back
TTITLE7=Fancy Pants
TTITLE8=I've Tried
TTITLE9=Comes a Time
TTITLE10=City Folks Call Us Poor
TTITLE11=Aunt Rose
TTITLE12=Last Chance to Dance
TTITLE13=Bad Attitude
TTITLE14=Ooh Baby
EXTD=
EXTT0=
EXTT1=
EXTT2=
EXTT3=
EXTT4=
EXTT5=
EXTT6=
EXTT7=
EXTT8=
EXTT9=
EXTT10=
EXTT11=
EXTT12=
EXTT13=
EXTT14=
PLAYORDER=
